# xmcd
#
# Track frame offsets:
#	150
#	10169
#	102404
#
# Disc length: 2426 seconds
#
# Revision: 1
# Processed by: cddbd v1.5.2PL0 Copyright (c) Steve Scherf et al.
# Submitted via: audiograbber 1.83.01
#
DISCID=1a097803
DTITLE=Birushanah - Birushanah
DYEAR=1900
DGENRE=post-metal
TTITLE0=Jyodo
TTITLE1=Akai Yami
TTITLE2=Kairai
EXTD=
EXTT0=
EXTT1=
EXTT2=
PLAYORDER=
